<?xml version="1.0" encoding="UTF-8" standalone="no"?><svg xmlns="http://www.w3.org/2000/svg" xmlns:xlink="http://www.w3.org/1999/xlink" contentScriptType="application/ecmascript" contentStyleType="text/css" height="492px" preserveAspectRatio="none" style="width:2529px;height:492px;background:#FFFFFF;" version="1.1" viewBox="0 0 2529 492" width="2529px" zoomAndPan="magnify"><defs><filter height="300%" id="f1gkcznnp2wmwe" width="300%" x="-1" y="-1"><feGaussianBlur result="blurOut" stdDeviation="2.0"/><feColorMatrix in="blurOut" result="blurOut2" type="matrix" values="0 0 0 0 0 0 0 0 0 0 0 0 0 0 0 0 0 0 .4 0"/><feOffset dx="4.0" dy="4.0" in="blurOut2" result="blurOut3"/><feBlend in="SourceGraphic" in2="blurOut3" mode="normal"/></filter></defs><g><ellipse cx="580.3125" cy="20" fill="#000000" filter="url(#f1gkcznnp2wmwe)" rx="10" ry="10" style="stroke:none;stroke-width:1.0;"/><polygon fill="#FEFECE" filter="url(#f1gkcznnp2wmwe)" points="541.8125,50,618.8125,50,630.8125,62,618.8125,74,541.8125,74,529.8125,62,541.8125,50" style="stroke:#A80036;stroke-width:1.5;"/><text fill="#000000" font-family="sans-serif" font-size="11" lengthAdjust="spacing" textLength="77" x="541.8125" y="67.0945">问号个数奇偶性</text><text fill="#000000" font-family="sans-serif" font-size="11" lengthAdjust="spacing" textLength="22" x="507.8125" y="59.583">奇数</text><text fill="#000000" font-family="sans-serif" font-size="11" lengthAdjust="spacing" textLength="22" x="630.8125" y="59.583">偶数</text><path d="M104,88.3171 L104,98.1943 L84,102.1943 L104,106.1943 L104,116.0715 A0,0 0 0 0 104,116.0715 L279,116.0715 A0,0 0 0 0 279,116.0715 L279,98.3171 L269,88.3171 L104,88.3171 A0,0 0 0 0 104,88.3171 " fill="#FBFB77" filter="url(#f1gkcznnp2wmwe)" style="stroke:#A80036;stroke-width:1.0;"/><path d="M269,88.3171 L269,98.3171 L279,98.3171 L269,88.3171 " fill="#FBFB77" style="stroke:#A80036;stroke-width:1.0;"/><text fill="#000000" font-family="sans-serif" font-size="13" lengthAdjust="spacing" textLength="154" x="110" y="108.2151">最后一个数字是 Alice 填写</text><rect fill="#FEFECE" filter="url(#f1gkcznnp2wmwe)" height="36.3887" rx="12.5" ry="12.5" style="stroke:#A80036;stroke-width:1.5;" width="73" x="11" y="84"/><text fill="#000000" font-family="sans-serif" font-size="12" lengthAdjust="spacing" textLength="53" x="21" y="107.752">Alice 获胜</text><polygon fill="#FEFECE" filter="url(#f1gkcznnp2wmwe)" points="1047.125,84,1179.125,84,1191.125,96,1179.125,108,1047.125,108,1035.125,96,1047.125,84" style="stroke:#A80036;stroke-width:1.5;"/><text fill="#000000" font-family="sans-serif" font-size="11" lengthAdjust="spacing" textLength="132" x="1047.125" y="101.0945">左右除问号外的和是否相等</text><text fill="#000000" font-family="sans-serif" font-size="11" lengthAdjust="spacing" textLength="22" x="1013.125" y="93.583">相等</text><text fill="#000000" font-family="sans-serif" font-size="11" lengthAdjust="spacing" textLength="22" x="1191.125" y="93.583">不等</text><polygon fill="#FEFECE" filter="url(#f1gkcznnp2wmwe)" points="641,118,751,118,763,130,751,142,641,142,629,130,641,118" style="stroke:#A80036;stroke-width:1.5;"/><text fill="#000000" font-family="sans-serif" font-size="11" lengthAdjust="spacing" textLength="110" x="641" y="135.0945">左右问号个数是否相等</text><text fill="#000000" font-family="sans-serif" font-size="11" lengthAdjust="spacing" textLength="22" x="607" y="127.583">相等</text><text fill="#000000" font-family="sans-serif" font-size="11" lengthAdjust="spacing" textLength="22" x="763" y="127.583">不等</text><path d="M289,152 L289,197.5088 A0,0 0 0 0 289,197.5088 L467,197.5088 A0,0 0 0 0 467,197.5088 L467,178.7544 L487,174.7544 L467,170.7544 L467,162 L457,152 L289,152 A0,0 0 0 0 289,152 " fill="#FBFB77" filter="url(#f1gkcznnp2wmwe)" style="stroke:#A80036;stroke-width:1.0;"/><path d="M457,152 L457,162 L467,162 L457,152 " fill="#FBFB77" style="stroke:#A80036;stroke-width:1.0;"/><text fill="#000000" font-family="sans-serif" font-size="13" lengthAdjust="spacing" textLength="157" x="295" y="171.8979">Bob 只需要在另外一边重复</text><text fill="#000000" font-family="sans-serif" font-size="13" lengthAdjust="spacing" textLength="98" x="295" y="189.6523">Alice 的操作即可</text><rect fill="#FEFECE" filter="url(#f1gkcznnp2wmwe)" height="36.3887" rx="12.5" ry="12.5" style="stroke:#A80036;stroke-width:1.5;" width="69" x="487" y="156.5601"/><text fill="#000000" font-family="sans-serif" font-size="12" lengthAdjust="spacing" textLength="49" x="497" y="180.312">Bob 获胜</text><path d="M576,152 L576,197.5088 A0,0 0 0 0 576,197.5088 L814,197.5088 A0,0 0 0 0 814,197.5088 L814,178.7544 L834,174.7544 L814,170.7544 L814,162 L804,152 L576,152 A0,0 0 0 0 576,152 " fill="#FBFB77" filter="url(#f1gkcznnp2wmwe)" style="stroke:#A80036;stroke-width:1.0;"/><path d="M804,152 L804,162 L814,162 L804,152 " fill="#FBFB77" style="stroke:#A80036;stroke-width:1.0;"/><text fill="#000000" font-family="sans-serif" font-size="13" lengthAdjust="spacing" textLength="217" x="582" y="171.8979">Alice 只需要在问号较多的一边填 9 ，</text><text fill="#000000" font-family="sans-serif" font-size="13" lengthAdjust="spacing" textLength="93" x="582" y="189.6523">另一边填 0 即可</text><rect fill="#FEFECE" filter="url(#f1gkcznnp2wmwe)" height="36.3887" rx="12.5" ry="12.5" style="stroke:#A80036;stroke-width:1.5;" width="73" x="834" y="156.5601"/><text fill="#000000" font-family="sans-serif" font-size="12" lengthAdjust="spacing" textLength="53" x="844" y="180.312">Alice 获胜</text><polygon fill="#FEFECE" filter="url(#f1gkcznnp2wmwe)" points="696,203.5088,708,215.5088,696,227.5088,684,215.5088,696,203.5088" style="stroke:#A80036;stroke-width:1.5;"/><polygon fill="#FEFECE" filter="url(#f1gkcznnp2wmwe)" points="1485.25,118,1595.25,118,1607.25,130,1595.25,142,1485.25,142,1473.25,130,1485.25,118" style="stroke:#A80036;stroke-width:1.5;"/><text fill="#000000" font-family="sans-serif" font-size="11" lengthAdjust="spacing" textLength="110" x="1485.25" y="135.0945">左右问号个数是否相等</text><text fill="#000000" font-family="sans-serif" font-size="11" lengthAdjust="spacing" textLength="22" x="1451.25" y="127.583">相等</text><text fill="#000000" font-family="sans-serif" font-size="11" lengthAdjust="spacing" textLength="22" x="1607.25" y="127.583">不等</text><path d="M917,152 L917,197.5088 A0,0 0 0 0 917,197.5088 L1142,197.5088 A0,0 0 0 0 1142,197.5088 L1142,178.7544 L1162,174.7544 L1142,170.7544 L1142,162 L1132,152 L917,152 A0,0 0 0 0 917,152 " fill="#FBFB77" filter="url(#f1gkcznnp2wmwe)" style="stroke:#A80036;stroke-width:1.0;"/><path d="M1132,152 L1132,162 L1142,162 L1132,152 " fill="#FBFB77" style="stroke:#A80036;stroke-width:1.0;"/><text fill="#000000" font-family="sans-serif" font-size="13" lengthAdjust="spacing" textLength="204" x="923" y="171.8979">Alice 只需要在和较大的一边填 9 ，</text><text fill="#000000" font-family="sans-serif" font-size="13" lengthAdjust="spacing" textLength="93" x="923" y="189.6523">另一边填 0 即可</text><rect fill="#FEFECE" filter="url(#f1gkcznnp2wmwe)" height="36.3887" rx="12.5" ry="12.5" style="stroke:#A80036;stroke-width:1.5;" width="73" x="1162" y="156.5601"/><text fill="#000000" font-family="sans-serif" font-size="12" lengthAdjust="spacing" textLength="53" x="1172" y="180.312">Alice 获胜</text><polygon fill="#FEFECE" filter="url(#f1gkcznnp2wmwe)" points="1825,152,1979,152,1991,164,1979,176,1825,176,1813,164,1825,152" style="stroke:#A80036;stroke-width:1.5;"/><text fill="#000000" font-family="sans-serif" font-size="11" lengthAdjust="spacing" textLength="154" x="1825" y="169.0945">问号多的一边和是否大于另一边</text><text fill="#000000" font-family="sans-serif" font-size="11" lengthAdjust="spacing" textLength="22" x="1791" y="161.583">大于</text><text fill="#000000" font-family="sans-serif" font-size="11" lengthAdjust="spacing" textLength="22" x="1991" y="161.583">小于</text><path d="M1245,186 L1245,231.5088 A0,0 0 0 0 1245,231.5088 L1483,231.5088 A0,0 0 0 0 1483,231.5088 L1483,212.7544 L1503,208.7544 L1483,204.7544 L1483,196 L1473,186 L1245,186 A0,0 0 0 0 1245,186 " fill="#FBFB77" filter="url(#f1gkcznnp2wmwe)" style="stroke:#A80036;stroke-width:1.0;"/><path d="M1473,186 L1473,196 L1483,196 L1473,186 " fill="#FBFB77" style="stroke:#A80036;stroke-width:1.0;"/><text fill="#000000" font-family="sans-serif" font-size="13" lengthAdjust="spacing" textLength="217" x="1251" y="205.8979">Alice 只需要在问号较多的一边填 9 ，</text><text fill="#000000" font-family="sans-serif" font-size="13" lengthAdjust="spacing" textLength="93" x="1251" y="223.6523">另一边填 0 即可</text><rect fill="#FEFECE" filter="url(#f1gkcznnp2wmwe)" height="36.3887" rx="12.5" ry="12.5" style="stroke:#A80036;stroke-width:1.5;" width="73" x="1503" y="190.5601"/><text fill="#000000" font-family="sans-serif" font-size="12" lengthAdjust="spacing" textLength="53" x="1513" y="214.312">Alice 获胜</text><polygon fill="#FEFECE" filter="url(#f1gkcznnp2wmwe)" points="2075.5,186,2453.5,186,2465.5,198,2453.5,210,2075.5,210,2063.5,198,2075.5,186" style="stroke:#A80036;stroke-width:1.5;"/><text fill="#000000" font-family="sans-serif" font-size="11" lengthAdjust="spacing" textLength="378" x="2075.5" y="203.0945">abs(leftQuestion - rightQuestion) / 2 * 9 与 abs(leftSum - rightSum) 的大小关系</text><text fill="#000000" font-family="sans-serif" font-size="11" lengthAdjust="spacing" textLength="22" x="2041.5" y="195.583">相等</text><text fill="#000000" font-family="sans-serif" font-size="11" lengthAdjust="spacing" textLength="22" x="2465.5" y="195.583">不等</text><path d="M1606,220 L1606,283.2632 A0,0 0 0 0 1606,283.2632 L1999,283.2632 A0,0 0 0 0 1999,283.2632 L1999,255.6316 L2019,251.6316 L1999,247.6316 L1999,230 L1989,220 L1606,220 A0,0 0 0 0 1606,220 " fill="#FBFB77" filter="url(#f1gkcznnp2wmwe)" style="stroke:#A80036;stroke-width:1.0;"/><path d="M1989,220 L1989,230 L1999,230 L1989,220 " fill="#FBFB77" style="stroke:#A80036;stroke-width:1.0;"/><text fill="#000000" font-family="sans-serif" font-size="13" lengthAdjust="spacing" textLength="337" x="1612" y="239.8979">若这一边的和小于另一边，则 Alice 会重复填 0 ，Bob 填 9</text><text fill="#000000" font-family="sans-serif" font-size="13" lengthAdjust="spacing" textLength="372" x="1612" y="257.6523">即使 Alice 任填一个数 num ，Bob 也可以填 9 - num 补齐为 9 。</text><text fill="#000000" font-family="sans-serif" font-size="13" lengthAdjust="spacing" textLength="208" x="1612" y="275.4067">如此操作，直到所有问号填写完毕。</text><rect fill="#FEFECE" filter="url(#f1gkcznnp2wmwe)" height="36.3887" rx="12.5" ry="12.5" style="stroke:#A80036;stroke-width:1.5;" width="69" x="2019" y="233.4373"/><text fill="#000000" font-family="sans-serif" font-size="12" lengthAdjust="spacing" textLength="49" x="2029" y="257.1892">Bob 获胜</text><rect fill="#FEFECE" filter="url(#f1gkcznnp2wmwe)" height="36.3887" rx="12.5" ry="12.5" style="stroke:#A80036;stroke-width:1.5;" width="73" x="2439" y="220"/><text fill="#000000" font-family="sans-serif" font-size="12" lengthAdjust="spacing" textLength="53" x="2449" y="243.752">Alice 获胜</text><polygon fill="#FEFECE" filter="url(#f1gkcznnp2wmwe)" points="2264.5,289.2632,2276.5,301.2632,2264.5,313.2632,2252.5,301.2632,2264.5,289.2632" style="stroke:#A80036;stroke-width:1.5;"/><polygon fill="#FEFECE" filter="url(#f1gkcznnp2wmwe)" points="1902,319.2632,1914,331.2632,1902,343.2632,1890,331.2632,1902,319.2632" style="stroke:#A80036;stroke-width:1.5;"/><polygon fill="#FEFECE" filter="url(#f1gkcznnp2wmwe)" points="1540.25,349.2632,1552.25,361.2632,1540.25,373.2632,1528.25,361.2632,1540.25,349.2632" style="stroke:#A80036;stroke-width:1.5;"/><polygon fill="#FEFECE" filter="url(#f1gkcznnp2wmwe)" points="1113.125,379.2632,1125.125,391.2632,1113.125,403.2632,1101.125,391.2632,1113.125,379.2632" style="stroke:#A80036;stroke-width:1.5;"/><polygon fill="#FEFECE" filter="url(#f1gkcznnp2wmwe)" points="580.3125,409.2632,592.3125,421.2632,580.3125,433.2632,568.3125,421.2632,580.3125,409.2632" style="stroke:#A80036;stroke-width:1.5;"/><ellipse cx="580.3125" cy="464.2632" fill="#FFFFFF" filter="url(#f1gkcznnp2wmwe)" rx="11" ry="11" style="stroke:#000000;stroke-width:1.0;"/><ellipse cx="580.3125" cy="464.2632" fill="#000000" rx="6" ry="6" style="stroke:#7F7F7F;stroke-width:1.0;"/><line style="stroke:#A80036;stroke-width:1.5;" x1="629" x2="521.5" y1="130" y2="130"/><line style="stroke:#A80036;stroke-width:1.5;" x1="521.5" x2="521.5" y1="130" y2="156.5601"/><polygon fill="#A80036" points="517.5,146.5601,521.5,156.5601,525.5,146.5601,521.5,150.5601" style="stroke:#A80036;stroke-width:1.0;"/><line style="stroke:#A80036;stroke-width:1.5;" x1="763" x2="870.5" y1="130" y2="130"/><line style="stroke:#A80036;stroke-width:1.5;" x1="870.5" x2="870.5" y1="130" y2="156.5601"/><polygon fill="#A80036" points="866.5,146.5601,870.5,156.5601,874.5,146.5601,870.5,150.5601" style="stroke:#A80036;stroke-width:1.0;"/><line style="stroke:#A80036;stroke-width:1.5;" x1="521.5" x2="521.5" y1="192.9487" y2="215.5088"/><line style="stroke:#A80036;stroke-width:1.5;" x1="521.5" x2="684" y1="215.5088" y2="215.5088"/><polygon fill="#A80036" points="674,211.5088,684,215.5088,674,219.5088,678,215.5088" style="stroke:#A80036;stroke-width:1.0;"/><line style="stroke:#A80036;stroke-width:1.5;" x1="870.5" x2="870.5" y1="192.9487" y2="215.5088"/><line style="stroke:#A80036;stroke-width:1.5;" x1="870.5" x2="708" y1="215.5088" y2="215.5088"/><polygon fill="#A80036" points="718,211.5088,708,215.5088,718,219.5088,714,215.5088" style="stroke:#A80036;stroke-width:1.0;"/><line style="stroke:#A80036;stroke-width:1.5;" x1="2063.5" x2="2053.5" y1="198" y2="198"/><line style="stroke:#A80036;stroke-width:1.5;" x1="2053.5" x2="2053.5" y1="198" y2="233.4373"/><polygon fill="#A80036" points="2049.5,223.4373,2053.5,233.4373,2057.5,223.4373,2053.5,227.4373" style="stroke:#A80036;stroke-width:1.0;"/><line style="stroke:#A80036;stroke-width:1.5;" x1="2465.5" x2="2475.5" y1="198" y2="198"/><line style="stroke:#A80036;stroke-width:1.5;" x1="2475.5" x2="2475.5" y1="198" y2="220"/><polygon fill="#A80036" points="2471.5,210,2475.5,220,2479.5,210,2475.5,214" style="stroke:#A80036;stroke-width:1.0;"/><line style="stroke:#A80036;stroke-width:1.5;" x1="2053.5" x2="2053.5" y1="269.8259" y2="301.2632"/><line style="stroke:#A80036;stroke-width:1.5;" x1="2053.5" x2="2252.5" y1="301.2632" y2="301.2632"/><polygon fill="#A80036" points="2242.5,297.2632,2252.5,301.2632,2242.5,305.2632,2246.5,301.2632" style="stroke:#A80036;stroke-width:1.0;"/><line style="stroke:#A80036;stroke-width:1.5;" x1="2475.5" x2="2475.5" y1="256.3887" y2="301.2632"/><line style="stroke:#A80036;stroke-width:1.5;" x1="2475.5" x2="2276.5" y1="301.2632" y2="301.2632"/><polygon fill="#A80036" points="2286.5,297.2632,2276.5,301.2632,2286.5,305.2632,2282.5,301.2632" style="stroke:#A80036;stroke-width:1.0;"/><line style="stroke:#A80036;stroke-width:1.5;" x1="1813" x2="1539.5" y1="164" y2="164"/><line style="stroke:#A80036;stroke-width:1.5;" x1="1539.5" x2="1539.5" y1="164" y2="190.5601"/><polygon fill="#A80036" points="1535.5,180.5601,1539.5,190.5601,1543.5,180.5601,1539.5,184.5601" style="stroke:#A80036;stroke-width:1.0;"/><line style="stroke:#A80036;stroke-width:1.5;" x1="1991" x2="2264.5" y1="164" y2="164"/><line style="stroke:#A80036;stroke-width:1.5;" x1="2264.5" x2="2264.5" y1="164" y2="186"/><polygon fill="#A80036" points="2260.5,176,2264.5,186,2268.5,176,2264.5,180" style="stroke:#A80036;stroke-width:1.0;"/><line style="stroke:#A80036;stroke-width:1.5;" x1="1539.5" x2="1539.5" y1="226.9487" y2="331.2632"/><line style="stroke:#A80036;stroke-width:1.5;" x1="1539.5" x2="1890" y1="331.2632" y2="331.2632"/><polygon fill="#A80036" points="1880,327.2632,1890,331.2632,1880,335.2632,1884,331.2632" style="stroke:#A80036;stroke-width:1.0;"/><line style="stroke:#A80036;stroke-width:1.5;" x1="2264.5" x2="2264.5" y1="313.2632" y2="331.2632"/><line style="stroke:#A80036;stroke-width:1.5;" x1="2264.5" x2="1914" y1="331.2632" y2="331.2632"/><polygon fill="#A80036" points="1924,327.2632,1914,331.2632,1924,335.2632,1920,331.2632" style="stroke:#A80036;stroke-width:1.0;"/><line style="stroke:#A80036;stroke-width:1.5;" x1="1473.25" x2="1198.5" y1="130" y2="130"/><line style="stroke:#A80036;stroke-width:1.5;" x1="1198.5" x2="1198.5" y1="130" y2="156.5601"/><polygon fill="#A80036" points="1194.5,146.5601,1198.5,156.5601,1202.5,146.5601,1198.5,150.5601" style="stroke:#A80036;stroke-width:1.0;"/><line style="stroke:#A80036;stroke-width:1.5;" x1="1607.25" x2="1902" y1="130" y2="130"/><line style="stroke:#A80036;stroke-width:1.5;" x1="1902" x2="1902" y1="130" y2="152"/><polygon fill="#A80036" points="1898,142,1902,152,1906,142,1902,146" style="stroke:#A80036;stroke-width:1.0;"/><line style="stroke:#A80036;stroke-width:1.5;" x1="1198.5" x2="1198.5" y1="192.9487" y2="361.2632"/><line style="stroke:#A80036;stroke-width:1.5;" x1="1198.5" x2="1528.25" y1="361.2632" y2="361.2632"/><polygon fill="#A80036" points="1518.25,357.2632,1528.25,361.2632,1518.25,365.2632,1522.25,361.2632" style="stroke:#A80036;stroke-width:1.0;"/><line style="stroke:#A80036;stroke-width:1.5;" x1="1902" x2="1902" y1="343.2632" y2="361.2632"/><line style="stroke:#A80036;stroke-width:1.5;" x1="1902" x2="1552.25" y1="361.2632" y2="361.2632"/><polygon fill="#A80036" points="1562.25,357.2632,1552.25,361.2632,1562.25,365.2632,1558.25,361.2632" style="stroke:#A80036;stroke-width:1.0;"/><line style="stroke:#A80036;stroke-width:1.5;" x1="1035.125" x2="696" y1="96" y2="96"/><line style="stroke:#A80036;stroke-width:1.5;" x1="696" x2="696" y1="96" y2="118"/><polygon fill="#A80036" points="692,108,696,118,700,108,696,112" style="stroke:#A80036;stroke-width:1.0;"/><line style="stroke:#A80036;stroke-width:1.5;" x1="1191.125" x2="1540.25" y1="96" y2="96"/><line style="stroke:#A80036;stroke-width:1.5;" x1="1540.25" x2="1540.25" y1="96" y2="118"/><polygon fill="#A80036" points="1536.25,108,1540.25,118,1544.25,108,1540.25,112" style="stroke:#A80036;stroke-width:1.0;"/><line style="stroke:#A80036;stroke-width:1.5;" x1="696" x2="696" y1="227.5088" y2="391.2632"/><line style="stroke:#A80036;stroke-width:1.5;" x1="696" x2="1101.125" y1="391.2632" y2="391.2632"/><polygon fill="#A80036" points="1091.125,387.2632,1101.125,391.2632,1091.125,395.2632,1095.125,391.2632" style="stroke:#A80036;stroke-width:1.0;"/><line style="stroke:#A80036;stroke-width:1.5;" x1="1540.25" x2="1540.25" y1="373.2632" y2="391.2632"/><line style="stroke:#A80036;stroke-width:1.5;" x1="1540.25" x2="1125.125" y1="391.2632" y2="391.2632"/><polygon fill="#A80036" points="1135.125,387.2632,1125.125,391.2632,1135.125,395.2632,1131.125,391.2632" style="stroke:#A80036;stroke-width:1.0;"/><line style="stroke:#A80036;stroke-width:1.5;" x1="529.8125" x2="47.5" y1="62" y2="62"/><line style="stroke:#A80036;stroke-width:1.5;" x1="47.5" x2="47.5" y1="62" y2="84"/><polygon fill="#A80036" points="43.5,74,47.5,84,51.5,74,47.5,78" style="stroke:#A80036;stroke-width:1.0;"/><line style="stroke:#A80036;stroke-width:1.5;" x1="630.8125" x2="1113.125" y1="62" y2="62"/><line style="stroke:#A80036;stroke-width:1.5;" x1="1113.125" x2="1113.125" y1="62" y2="84"/><polygon fill="#A80036" points="1109.125,74,1113.125,84,1117.125,74,1113.125,78" style="stroke:#A80036;stroke-width:1.0;"/><line style="stroke:#A80036;stroke-width:1.5;" x1="47.5" x2="47.5" y1="120.3887" y2="421.2632"/><line style="stroke:#A80036;stroke-width:1.5;" x1="47.5" x2="568.3125" y1="421.2632" y2="421.2632"/><polygon fill="#A80036" points="558.3125,417.2632,568.3125,421.2632,558.3125,425.2632,562.3125,421.2632" style="stroke:#A80036;stroke-width:1.0;"/><line style="stroke:#A80036;stroke-width:1.5;" x1="1113.125" x2="1113.125" y1="403.2632" y2="421.2632"/><line style="stroke:#A80036;stroke-width:1.5;" x1="1113.125" x2="592.3125" y1="421.2632" y2="421.2632"/><polygon fill="#A80036" points="602.3125,417.2632,592.3125,421.2632,602.3125,425.2632,598.3125,421.2632" style="stroke:#A80036;stroke-width:1.0;"/><line style="stroke:#A80036;stroke-width:1.5;" x1="580.3125" x2="580.3125" y1="30" y2="50"/><polygon fill="#A80036" points="576.3125,40,580.3125,50,584.3125,40,580.3125,44" style="stroke:#A80036;stroke-width:1.0;"/><line style="stroke:#A80036;stroke-width:1.5;" x1="580.3125" x2="580.3125" y1="433.2632" y2="453.2632"/><polygon fill="#A80036" points="576.3125,443.2632,580.3125,453.2632,584.3125,443.2632,580.3125,447.2632" style="stroke:#A80036;stroke-width:1.0;"/><!--MD5=[723411da7742f7f50eb618eb5f149180]
@startuml
start

if (问号个数奇偶性) then (奇数)
  :Alice 获胜;
note right: 最后一个数字是 Alice 填写
else (偶数)
  if (左右除问号外的和是否相等) then (相等)
    if (左右问号个数是否相等) then (相等)
      :Bob 获胜;
note
Bob 只需要在另外一边重复
Alice 的操作即可
end note
    else (不等)
      :Alice 获胜;
note
Alice 只需要在问号较多的一边填 9 ，
另一边填 0 即可
end note
    endif
  else (不等)
    if (左右问号个数是否相等) then (相等)
      :Alice 获胜;
note
Alice 只需要在和较大的一边填 9 ，
另一边填 0 即可
end note
    else (不等)
        if (问号多的一边和是否大于另一边) then (大于)
            :Alice 获胜;
            note
Alice 只需要在问号较多的一边填 9 ，
另一边填 0 即可
end note
        else (小于)
            if (abs(leftQuestion - rightQuestion) / 2 * 9 与 abs(leftSum - rightSum) 的大小关系) then (相等)
            :Bob 获胜;
note
若这一边的和小于另一边，则 Alice 会重复填 0 ，Bob 填 9
即使 Alice 任填一个数 num ，Bob 也可以填 9 - num 补齐为 9 。
如此操作，直到所有问号填写完毕。
end note
            else (不等)
            :Alice 获胜;
            endif
        endif
    endif
  endif
endif

stop
@enduml

PlantUML version 1.2021.7(Sun May 23 20:40:07 CST 2021)
(GPL source distribution)
Java Runtime: OpenJDK Runtime Environment
JVM: OpenJDK 64-Bit Server VM
Default Encoding: GBK
Language: zh
Country: CN
--></g></svg>